<svg width="199" height="199" viewBox="0 0 199 199" fill="none" xmlns="http://www.w3.org/2000/svg">
<rect width="199" height="199" fill="black"/>
<path d="M32.5863 49.5249C54.7491 61.997 66.4369 63.8633 85.7776 56.6623C102.515 100.846 122.439 115.404 170.116 129.611C128.408 113.276 107.459 101.465 89.1412 59.6516C101.123 72.1787 107.639 74.7712 118.997 73.4762C122.059 99.9152 137.524 111.064 170.116 129.611C133.333 141.673 110.892 141.434 66.8075 125.426C84.4417 128.283 91.4022 125.694 99.8172 114.627C128.423 128.941 143.693 131.314 170.116 129.611C114.851 125.649 84.6554 109.546 32.5863 49.5249Z" fill="#D9D9D9"/>
<path d="M170.116 129.611C122.439 115.404 102.515 100.846 85.7776 56.6623C66.4369 63.8633 54.7491 61.997 32.5863 49.5249C84.6554 109.546 114.851 125.649 170.116 129.611ZM170.116 129.611C137.524 111.064 122.059 99.9152 118.997 73.4762C107.639 74.7712 101.123 72.1787 89.1412 59.6516C107.459 101.465 128.408 113.276 170.116 129.611ZM170.116 129.611C143.693 131.314 128.423 128.941 99.8172 114.627C91.4022 125.694 84.4417 128.283 66.8075 125.426C110.892 141.434 133.333 141.673 170.116 129.611Z" stroke="black"/>
</svg>
